<mxfile host="Electron" modified="2024-04-23T22:39:06.683Z" agent="Mozilla/5.0 (Windows NT 10.0; Win64; x64) AppleWebKit/537.36 (KHTML, like Gecko) draw.io/24.0.4 Chrome/120.0.6099.109 Electron/28.1.0 Safari/537.36" etag="50RoO9TRxt-P_tUnhpLV" version="24.0.4" type="device">
  <diagram name="Page-1" id="6gi42uWLZMOWODTY8Lcy">
    <mxGraphModel dx="1467" dy="2072" grid="0" gridSize="10" guides="1" tooltips="1" connect="1" arrows="1" fold="1" page="1" pageScale="1" pageWidth="827" pageHeight="1169" math="0" shadow="0">
      <root>
        <mxCell id="0" />
        <mxCell id="1" parent="0" />
        <mxCell id="1AMluKKBBbUW0tL9ClhW-52" value="Order a book Activity Diagram" style="text;html=1;align=center;verticalAlign=middle;resizable=0;points=[];autosize=1;strokeColor=none;fillColor=none;fontSize=25;" vertex="1" parent="1">
          <mxGeometry x="243" y="-994" width="350" height="42" as="geometry" />
        </mxCell>
        <mxCell id="1AMluKKBBbUW0tL9ClhW-53" value="" style="group" vertex="1" connectable="0" parent="1">
          <mxGeometry x="69" y="-888" width="679" height="733" as="geometry" />
        </mxCell>
        <mxCell id="1AMluKKBBbUW0tL9ClhW-17" style="edgeStyle=orthogonalEdgeStyle;rounded=0;orthogonalLoop=1;jettySize=auto;html=1;exitX=0.5;exitY=1;exitDx=0;exitDy=0;entryX=0.5;entryY=0;entryDx=0;entryDy=0;" edge="1" parent="1AMluKKBBbUW0tL9ClhW-53" source="1AMluKKBBbUW0tL9ClhW-11" target="1AMluKKBBbUW0tL9ClhW-16">
          <mxGeometry relative="1" as="geometry" />
        </mxCell>
        <mxCell id="1AMluKKBBbUW0tL9ClhW-11" value="" style="ellipse;whiteSpace=wrap;html=1;aspect=fixed;fillColor=#000000;container=0;" vertex="1" parent="1AMluKKBBbUW0tL9ClhW-53">
          <mxGeometry x="328.0258449304175" y="2.0248618784530388" width="37.7972166998012" height="37.7972166998012" as="geometry" />
        </mxCell>
        <mxCell id="1AMluKKBBbUW0tL9ClhW-19" value="" style="group" vertex="1" connectable="0" parent="1AMluKKBBbUW0tL9ClhW-53">
          <mxGeometry x="265.9304174950298" y="161.31399631675876" width="161.98807157057655" height="80.99447513812154" as="geometry" />
        </mxCell>
        <mxCell id="1AMluKKBBbUW0tL9ClhW-16" value="" style="rounded=1;whiteSpace=wrap;html=1;" vertex="1" parent="1AMluKKBBbUW0tL9ClhW-19">
          <mxGeometry width="161.98807157057655" height="80.99447513812154" as="geometry" />
        </mxCell>
        <mxCell id="1AMluKKBBbUW0tL9ClhW-18" value="Order a book" style="text;html=1;align=center;verticalAlign=middle;whiteSpace=wrap;rounded=0;" vertex="1" parent="1AMluKKBBbUW0tL9ClhW-19">
          <mxGeometry x="22.94831013916501" y="6.749539594843462" width="116.09145129224652" height="67.49539594843462" as="geometry" />
        </mxCell>
        <mxCell id="1AMluKKBBbUW0tL9ClhW-21" value="" style="rhombus;whiteSpace=wrap;html=1;" vertex="1" parent="1AMluKKBBbUW0tL9ClhW-53">
          <mxGeometry x="292.92842942345925" y="331.402394106814" width="107.9920477137177" height="107.99263351749539" as="geometry" />
        </mxCell>
        <mxCell id="1AMluKKBBbUW0tL9ClhW-22" style="edgeStyle=orthogonalEdgeStyle;rounded=0;orthogonalLoop=1;jettySize=auto;html=1;exitX=0.5;exitY=1;exitDx=0;exitDy=0;entryX=0.5;entryY=0;entryDx=0;entryDy=0;" edge="1" parent="1AMluKKBBbUW0tL9ClhW-53" source="1AMluKKBBbUW0tL9ClhW-16" target="1AMluKKBBbUW0tL9ClhW-21">
          <mxGeometry relative="1" as="geometry" />
        </mxCell>
        <mxCell id="1AMluKKBBbUW0tL9ClhW-27" value="[Book is available]" style="text;html=1;align=center;verticalAlign=middle;resizable=0;points=[];autosize=1;strokeColor=none;fillColor=none;" vertex="1" parent="1AMluKKBBbUW0tL9ClhW-53">
          <mxGeometry x="427.91848906560637" y="354.3508287292818" width="115" height="26" as="geometry" />
        </mxCell>
        <mxCell id="1AMluKKBBbUW0tL9ClhW-28" value="[Book is not available]" style="text;html=1;align=center;verticalAlign=middle;resizable=0;points=[];autosize=1;strokeColor=none;fillColor=none;" vertex="1" parent="1AMluKKBBbUW0tL9ClhW-53">
          <mxGeometry x="97.19284294234592" y="354.3508287292818" width="135" height="26" as="geometry" />
        </mxCell>
        <mxCell id="1AMluKKBBbUW0tL9ClhW-35" value="" style="group" vertex="1" connectable="0" parent="1AMluKKBBbUW0tL9ClhW-53">
          <mxGeometry x="328.0258449304175" y="693.1777163904236" width="37.7972166998012" height="37.797421731123386" as="geometry" />
        </mxCell>
        <mxCell id="1AMluKKBBbUW0tL9ClhW-29" value="" style="ellipse;whiteSpace=wrap;html=1;aspect=fixed;fillColor=none;container=0;strokeWidth=0.5;" vertex="1" parent="1AMluKKBBbUW0tL9ClhW-35">
          <mxGeometry width="37.7972166998012" height="37.7972166998012" as="geometry" />
        </mxCell>
        <mxCell id="1AMluKKBBbUW0tL9ClhW-34" value="" style="ellipse;whiteSpace=wrap;html=1;aspect=fixed;fillColor=#000000;container=0;" vertex="1" parent="1AMluKKBBbUW0tL9ClhW-35">
          <mxGeometry x="4.0497017892644145" y="4.0497237569060776" width="29.69781312127237" height="29.69781312127237" as="geometry" />
        </mxCell>
        <mxCell id="1AMluKKBBbUW0tL9ClhW-40" value="" style="edgeStyle=orthogonalEdgeStyle;rounded=0;orthogonalLoop=1;jettySize=auto;html=1;exitX=0;exitY=0.5;exitDx=0;exitDy=0;" edge="1" parent="1AMluKKBBbUW0tL9ClhW-53" source="1AMluKKBBbUW0tL9ClhW-21" target="1AMluKKBBbUW0tL9ClhW-39">
          <mxGeometry relative="1" as="geometry">
            <mxPoint x="82.34766024542417" y="501.0718549564997" as="targetPoint" />
            <mxPoint x="292.92842942345925" y="385.39871086556167" as="sourcePoint" />
          </mxGeometry>
        </mxCell>
        <mxCell id="1AMluKKBBbUW0tL9ClhW-45" style="edgeStyle=orthogonalEdgeStyle;rounded=0;orthogonalLoop=1;jettySize=auto;html=1;exitX=0.5;exitY=1;exitDx=0;exitDy=0;entryX=0.5;entryY=0;entryDx=0;entryDy=0;" edge="1" parent="1AMluKKBBbUW0tL9ClhW-53" source="1AMluKKBBbUW0tL9ClhW-39" target="1AMluKKBBbUW0tL9ClhW-29">
          <mxGeometry relative="1" as="geometry" />
        </mxCell>
        <mxCell id="1AMluKKBBbUW0tL9ClhW-39" value="Reserve the book and provide a deliver date" style="rounded=1;whiteSpace=wrap;html=1;" vertex="1" parent="1AMluKKBBbUW0tL9ClhW-53">
          <mxGeometry y="498.79097605893185" width="170.08747514910536" height="85.04419889502762" as="geometry" />
        </mxCell>
        <mxCell id="1AMluKKBBbUW0tL9ClhW-43" value="" style="edgeStyle=orthogonalEdgeStyle;rounded=0;orthogonalLoop=1;jettySize=auto;html=1;exitX=1;exitY=0.5;exitDx=0;exitDy=0;" edge="1" parent="1AMluKKBBbUW0tL9ClhW-53" source="1AMluKKBBbUW0tL9ClhW-21" target="1AMluKKBBbUW0tL9ClhW-41">
          <mxGeometry relative="1" as="geometry">
            <mxPoint x="603.4055666003976" y="498.79097605893185" as="targetPoint" />
            <mxPoint x="400.92047713717693" y="385.39871086556167" as="sourcePoint" />
          </mxGeometry>
        </mxCell>
        <mxCell id="1AMluKKBBbUW0tL9ClhW-44" style="edgeStyle=orthogonalEdgeStyle;rounded=0;orthogonalLoop=1;jettySize=auto;html=1;exitX=0.5;exitY=1;exitDx=0;exitDy=0;entryX=0.5;entryY=0;entryDx=0;entryDy=0;" edge="1" parent="1AMluKKBBbUW0tL9ClhW-53" source="1AMluKKBBbUW0tL9ClhW-41" target="1AMluKKBBbUW0tL9ClhW-29">
          <mxGeometry relative="1" as="geometry" />
        </mxCell>
        <mxCell id="1AMluKKBBbUW0tL9ClhW-41" value="Give book to the student with return date." style="rounded=1;whiteSpace=wrap;html=1;" vertex="1" parent="1AMluKKBBbUW0tL9ClhW-53">
          <mxGeometry x="508.91252485089467" y="498.79097605893185" width="170.08747514910536" height="85.04419889502762" as="geometry" />
        </mxCell>
        <mxCell id="1AMluKKBBbUW0tL9ClhW-46" value="" style="group" vertex="1" connectable="0" parent="1AMluKKBBbUW0tL9ClhW-53">
          <mxGeometry x="28.347912524850894" width="272.67992047713716" height="41.84714548802947" as="geometry" />
        </mxCell>
        <mxCell id="1AMluKKBBbUW0tL9ClhW-13" value="" style="endArrow=classic;html=1;rounded=0;jumpSize=20;strokeWidth=2;" edge="1" parent="1AMluKKBBbUW0tL9ClhW-46">
          <mxGeometry width="50" height="50" relative="1" as="geometry">
            <mxPoint x="105.29224652087474" y="19.96513812154691" as="sourcePoint" />
            <mxPoint x="272.67992047713716" y="19.96513812154691" as="targetPoint" />
          </mxGeometry>
        </mxCell>
        <mxCell id="1AMluKKBBbUW0tL9ClhW-14" value="Start" style="text;html=1;align=center;verticalAlign=middle;resizable=0;points=[];autosize=1;strokeColor=none;fillColor=none;container=0;fontSize=16;" vertex="1" parent="1AMluKKBBbUW0tL9ClhW-46">
          <mxGeometry width="52" height="31" as="geometry" />
        </mxCell>
        <mxCell id="1AMluKKBBbUW0tL9ClhW-50" value="" style="group" vertex="1" connectable="0" parent="1AMluKKBBbUW0tL9ClhW-53">
          <mxGeometry x="32.39761431411531" y="691.1528545119705" width="268.63021868787274" height="41.84714548802947" as="geometry" />
        </mxCell>
        <mxCell id="1AMluKKBBbUW0tL9ClhW-48" value="" style="endArrow=classic;html=1;rounded=0;jumpSize=20;strokeWidth=2;" edge="1" parent="1AMluKKBBbUW0tL9ClhW-50">
          <mxGeometry width="50" height="50" relative="1" as="geometry">
            <mxPoint x="101.24254473161032" y="19.96513812154691" as="sourcePoint" />
            <mxPoint x="268.63021868787274" y="19.96513812154691" as="targetPoint" />
          </mxGeometry>
        </mxCell>
        <mxCell id="1AMluKKBBbUW0tL9ClhW-49" value="End" style="text;html=1;align=center;verticalAlign=middle;resizable=0;points=[];autosize=1;strokeColor=none;fillColor=none;container=0;fontSize=16;" vertex="1" parent="1AMluKKBBbUW0tL9ClhW-50">
          <mxGeometry width="46" height="31" as="geometry" />
        </mxCell>
      </root>
    </mxGraphModel>
  </diagram>
</mxfile>
